<svg width="22" height="24" viewBox="0 0 22 24" fill="none" xmlns="http://www.w3.org/2000/svg">
<path d="M15.3821 4.06708C14.1836 3.0513 12.949 1.99755 11.6996 0.752078L10.9874 0.0449219L10.2883 0.753062C8.03896 3.00836 6.97625 6.4712 6.51481 8.5487C6.16161 8.00125 5.89953 7.40017 5.73875 6.76886L5.31627 5.13784L4.08777 6.29247C1.93527 8.31297 0.499999 10.3176 0.499999 13.5277C0.458655 18.2918 3.6635 22.4733 8.27464 23.6715C8.94988 23.8357 9.63913 23.936 10.3332 23.9711C10.5612 23.9876 11.2141 24.004 11.326 23.9971C16.9831 23.8269 21.4795 19.1893 21.4747 13.5296C21.4747 9.24086 18.6512 6.84372 15.3821 4.06708ZM11.1808 21.9865C11.0763 21.9956 10.9812 21.9965 10.8754 21.9955C9.00772 21.9385 7.52197 20.4103 7.51743 18.5417C7.51743 17.276 8.19622 16.6451 9.73246 15.3375C10.1197 15.0081 10.541 14.6498 10.9842 14.2395C11.3725 14.5918 11.7498 14.9113 12.0982 15.2077C13.6414 16.5174 14.447 17.261 14.447 18.5388C14.4435 20.3718 13.011 21.8839 11.1808 21.9865ZM16.1918 20.2187L16.1719 20.2327C16.351 19.6869 16.4427 19.1162 16.4434 18.5417C16.4434 16.2808 14.96 15.021 13.3909 13.6884C12.8349 13.2173 12.2609 12.7301 11.6879 12.1571L10.9812 11.4514L10.2755 12.1571C9.62863 12.803 8.99577 13.342 8.43777 13.8172C6.87257 15.1488 5.51999 16.2997 5.51999 18.5417C5.5221 19.1408 5.6233 19.7355 5.81947 20.3015C3.71319 18.6842 2.48384 16.1753 2.49645 13.5197C2.48005 11.7681 3.158 10.0812 4.38205 8.82812C4.59289 9.25586 4.84283 9.6632 5.12872 10.045C5.55542 10.6208 6.28353 10.8879 6.98141 10.7247C7.69086 10.5668 8.24244 10.0086 8.39188 9.2973C8.80986 7.00305 9.71385 4.82481 11.0431 2.90875C12.0962 3.90695 13.1394 4.79036 14.0807 5.58995C17.2071 8.24519 19.471 10.1637 19.471 13.5257C19.476 16.1449 18.264 18.6179 16.1909 20.2187H16.1918V20.2187Z" fill="#677080"/>
</svg>
